# xmcd
#
# Track frame offsets: 
#        150
#        14599
#        26039
#        38665
#        48865
#        59381
#        73521
#        84151
#        95736
#        109906
#        123157
#        134001
#        147481
#        157367
#        168328
#        182754
#        195657
#        208481
#        221505
#        232197
#        242771
#        255423
#        274068
#        286524
#        300026
#        313282
#        325074
#        337737
#
# Disc length: 4663 seconds
#
# Revision: 1
# Processed by: cddbd v1.5.2PL0 Copyright (c) Steve Scherf et al.
# Submitted via: ExactAudioCopyFreeDBPlugin 1.0
#
DISCID=9c12351c
DTITLE=Wilson Pickett - Funky Midnight Mover:  The Atlantic Studio Rec
DTITLE=ordings, 1962 - 1978 [box set]
DYEAR=2009
DGENRE=Soul
TTITLE0=I've Come a Long Way
TTITLE1=I'm in Love
TTITLE2=Jealous Love
TTITLE3=Don't Cry No More
TTITLE4=That Kind of Love
TTITLE5=Bring it on Home to Me
TTITLE6=Stagger Lee
TTITLE7=Hello Sunshine
TTITLE8=Deborah
TTITLE9=Down by the Sea
TTITLE10=I Found a True Love
TTITLE11=Remember, I Been Good to You
TTITLE12=Let's Get an Understanding
TTITLE13=I'm a Midnight Mover
TTITLE14=Trust Me
TTITLE15=It's a Groove
TTITLE16=A Man and a Half
TTITLE17=Woman Likes to Hear That
TTITLE18=Night Owl
TTITLE19=Sit Down and Talk This Over
TTITLE20=People Make the World
TTITLE21=Hey Jude (ft Duane Allman)
TTITLE22=Search Your Heart
TTITLE23=Mini-Skirt Minnie
TTITLE24=Back in Your Arms
TTITLE25=Save Me
TTITLE26=Toe Hold
TTITLE27=My Own Style of Loving
EXTD=
EXTT0=
EXTT1=
EXTT2=
EXTT3=
EXTT4=
EXTT5=
EXTT6=
EXTT7=
EXTT8=
EXTT9=
EXTT10=
EXTT11=
EXTT12=
EXTT13=
EXTT14=
EXTT15=
EXTT16=
EXTT17=
EXTT18=
EXTT19=
EXTT20=
EXTT21=
EXTT22=
EXTT23=
EXTT24=
EXTT25=
EXTT26=
EXTT27=
PLAYORDER=
